<?xml version="1.0" standalone="no"?>
<!DOCTYPE svg PUBLIC "-//W3C//DTD SVG 20010904//EN"
 "http://www.w3.org/TR/2001/REC-SVG-20010904/DTD/svg10.dtd">
<svg version="1.0" xmlns="http://www.w3.org/2000/svg"
 width="830.000000pt" height="830.000000pt" viewBox="0 0 830.000000 830.000000"
 preserveAspectRatio="xMidYMid meet">
<metadata>
Created by potrace 1.11, written by Peter Selinger 2001-2013
</metadata>
<g transform="translate(0.000000,830.000000) scale(0.100000,-0.100000)"
fill="#000000" stroke="none">
<path d="M3516 7415 c-164 -31 -289 -81 -387 -155 -84 -63 -225 -223 -258
-294 -32 -66 -50 -132 -51 -182 0 -21 -13 -45 -42 -80 -158 -184 -294 -415
-371 -629 -54 -148 -66 -210 -82 -425 -25 -335 -16 -665 21 -783 8 -26 19 -80
24 -120 5 -39 14 -88 20 -107 10 -34 0 -229 -31 -588 -20 -218 -1 -531 40
-663 10 -35 25 -118 31 -184 16 -163 57 -318 124 -470 32 -70 84 -207 117
-304 66 -192 107 -270 173 -328 24 -21 52 -56 64 -79 71 -140 228 -261 395
-304 47 -12 95 -34 138 -63 205 -138 621 -194 939 -127 118 24 128 24 65 -1
-135 -55 -459 -130 -570 -132 -62 -2 -80 3 -160 39 -49 22 -148 75 -219 117
l-129 78 7 -203 c3 -112 11 -372 17 -578 6 -206 14 -378 18 -381 8 -8 177 -36
341 -56 140 -17 648 -24 702 -10 23 6 27 13 32 64 3 32 10 236 16 453 5 217
12 449 16 516 l6 121 84 38 c46 20 103 54 126 74 25 22 64 43 93 51 217 58
407 196 476 344 18 38 44 75 64 90 90 69 176 225 255 465 29 85 76 203 106
263 63 126 84 202 84 313 0 44 9 134 20 200 52 318 62 723 24 1022 -16 129
-16 159 6 670 10 238 10 335 1 455 -7 84 -16 205 -21 268 -27 358 -127 655
-292 868 -36 48 -79 111 -94 140 -35 67 -132 158 -225 213 -279 163 -719 312
-1104 375 -143 23 -505 28 -609 9z m1498 -1201 c153 -37 297 -156 412 -341 67
-107 110 -217 165 -423 143 -538 134 -489 87 -463 -30 17 -80 18 -622 21 -675
3 -662 4 -740 -74 -45 -44 -76 -114 -76 -171 0 -20 -3 -22 -32 -15 -18 4 -84
7 -145 6 l-113 0 0 30 c-1 70 -61 159 -135 199 -39 21 -52 22 -427 25 -222 2
-388 7 -388 12 0 5 26 30 58 56 143 117 299 140 473 70 70 -28 99 -23 99 18 0
30 -30 49 -116 75 -148 43 -266 35 -393 -25 -57 -26 -93 -54 -158 -118 l-84
-84 -167 -4 c-151 -3 -171 -5 -210 -26 l-43 -23 6 23 c3 13 21 100 41 193 76
360 164 672 216 762 71 123 179 221 288 260 90 33 152 36 280 13 332 -59 398
-69 539 -80 118 -10 188 -10 314 -1 161 12 397 48 512 77 134 35 240 37 359 8z
m-2194 -1329 c0 -19 34 -37 55 -29 8 4 20 15 26 25 9 18 29 19 422 19 460 0
461 0 501 -69 24 -42 24 -75 -3 -269 -14 -108 -28 -170 -45 -208 -35 -76 -106
-148 -185 -187 l-66 -32 -410 -3 c-393 -2 -411 -1 -442 17 -18 11 -39 30 -47
43 -21 33 -146 520 -146 570 0 51 30 100 73 122 45 22 267 23 267 1z m2820 0
c38 -19 68 -59 76 -99 4 -24 -15 -112 -65 -307 -67 -259 -73 -276 -106 -309
l-35 -35 -423 0 -422 0 -57 27 c-111 52 -193 158 -217 278 -21 107 -43 320
-37 353 6 32 55 89 86 100 8 3 275 6 593 6 492 1 582 -1 607 -14z m-1425 -249
l40 -12 17 -120 c9 -67 26 -145 38 -174 60 -151 204 -271 362 -300 36 -7 207
-10 456 -8 l399 3 48 30 c81 50 98 85 160 325 63 242 64 245 70 238 3 -2 -8
-101 -25 -219 -16 -118 -52 -383 -80 -589 -28 -206 -57 -402 -65 -435 -8 -33
-38 -107 -67 -165 -46 -94 -62 -116 -153 -207 -101 -101 -144 -128 -168 -104
-8 8 -14 91 -18 264 -5 226 -8 258 -27 311 -43 116 -114 209 -204 269 -29 19
-143 76 -253 128 -246 115 -257 116 -484 70 -162 -33 -159 -33 -318 0 -164 34
-223 25 -346 -50 -37 -23 -122 -69 -189 -102 -182 -91 -269 -183 -326 -341
-24 -68 -26 -89 -31 -312 -7 -284 -8 -286 -91 -216 -73 62 -183 188 -245 284
-101 156 -165 308 -204 487 -20 93 -55 436 -66 639 l-5 105 33 -122 c19 -67
40 -135 47 -152 19 -47 102 -117 154 -130 61 -15 785 -15 858 0 77 16 185 76
244 136 79 78 120 171 142 319 10 66 22 126 26 132 18 30 193 42 271 18z m80
-960 c94 -18 187 -37 208 -40 33 -6 37 -10 37 -36 0 -19 -11 -42 -29 -62 l-29
-33 -387 0 -387 0 -29 33 c-16 18 -29 43 -29 55 0 22 12 25 208 69 114 25 221
46 237 47 17 0 107 -14 200 -33z m446 -87 c113 -22 141 -34 183 -76 69 -68 81
-149 41 -287 -70 -240 -204 -409 -403 -509 -139 -68 -258 -63 -347 15 -52 46
-73 82 -83 141 l-8 42 -53 0 c-60 0 -53 8 -80 -91 -15 -56 -81 -128 -136 -149
-148 -57 -362 50 -479 238 -120 192 -180 433 -132 527 24 46 54 78 91 98 32
16 226 63 236 56 3 -2 8 -34 11 -72 5 -67 53 -197 82 -222 8 -6 31 1 68 19 31
16 89 35 129 42 63 11 83 11 153 -4 72 -14 88 -14 141 -2 114 28 226 14 320
-38 l45 -26 25 38 c35 53 65 142 72 217 3 35 9 64 13 64 4 0 54 -9 111 -21z"/>
<path d="M4615 5346 c-72 -23 -159 -73 -208 -121 -20 -19 -27 -35 -25 -53 5
-44 38 -39 111 16 197 150 421 133 637 -48 51 -43 84 -50 98 -22 14 26 2 45
-53 92 -176 146 -378 195 -560 136z"/>
<path d="M3285 4701 c-43 -26 -61 -50 -75 -96 -33 -112 69 -222 184 -201 43 8
99 54 116 96 17 41 8 121 -18 157 -43 60 -146 82 -207 44z"/>
<path d="M4770 4709 c-122 -51 -134 -224 -20 -288 135 -75 285 60 222 201 -11
25 -34 55 -52 68 -37 26 -111 36 -150 19z"/>
<path d="M5823 2601 c11 -53 -98 -246 -235 -418 -91 -113 -316 -341 -443 -448
-128 -107 -294 -235 -305 -235 -5 0 -14 16 -21 35 -7 19 -14 33 -16 31 -2 -2
-6 -68 -9 -147 -3 -79 -12 -287 -20 -463 -18 -402 -18 -506 -1 -506 70 0 433
91 617 155 567 198 1045 498 1465 919 122 123 259 280 335 383 l23 32 -44 57
c-24 31 -67 76 -96 99 -105 86 -373 223 -643 330 -131 52 -512 182 -584 199
-28 7 -28 6 -23 -23z"/>
<path d="M2264 2490 c-395 -120 -713 -256 -926 -396 -98 -65 -218 -170 -218
-191 0 -7 28 -46 62 -89 462 -574 1104 -1011 1821 -1240 64 -20 120 -35 123
-32 5 5 -5 284 -26 733 -6 116 -10 248 -10 294 l0 84 -26 -24 -26 -24 -90 95
c-168 178 -321 380 -462 613 l-78 127 16 47 c9 26 16 48 16 50 0 6 -17 2 -176
-47z"/>
<path d="M3225 1015 c-50 -49 -23 -145 40 -145 63 0 90 96 40 145 -13 14 -31
25 -40 25 -9 0 -27 -11 -40 -25z"/>
<path d="M4635 998 c-9 -24 -1 -143 10 -143 13 0 19 135 6 148 -7 7 -12 5 -16
-5z"/>
</g>
</svg>
